/* XPM */
static char *miceamaze[] = {
/* columns rows colors chars-per-pixel */
"32 32 136 2 ",
"   c black",
".  c #131313",
"X  c #1E1E1E",
"o  c #323232",
"O  c #363636",
"+  c #414141",
"@  c #434343",
"#  c #454545",
"$  c #464646",
"%  c #484848",
"&  c #4A4A4A",
"*  c #4C4C4C",
"=  c #4E4E4E",
"-  c #575757",
";  c #585858",
":  c #5A5A5A",
">  c #616161",
",  c #636363",
"<  c #656565",
"1  c #666666",
"2  c #676767",
"3  c #686868",
"4  c #696969",
"5  c #6E6E6E",
"6  c #737373",
"7  c #747474",
"8  c #777777",
"9  c #787878",
"0  c #7A7A7A",
"q  c #7C7C7C",
"w  c #7D7D7D",
"e  c #7F7F7F",
"r  c #8F757E",
"t  c #937781",
"y  c #9E7583",
"u  c #A27584",
"i  c #AB7688",
"p  c #808080",
"a  c #818181",
"s  c #848484",
"d  c #868686",
"f  c #878787",
"g  c #888888",
"h  c #8B8B8B",
"j  c #8C8C8C",
"k  c #8E8E8E",
"l  c #9C8F94",
"z  c #909090",
"x  c #949494",
"c  c #979797",
"v  c #989294",
"b  c #989898",
"n  c #9B9A9A",
"m  c #9B9B9B",
"M  c #9C9C9C",
"N  c #9D9D9D",
"B  c #9F9F9F",
"V  c #A09196",
"C  c #A0979A",
"Z  c #A39C9F",
"A  c #A49FA1",
"S  c #A0A0A0",
"D  c #A1A1A1",
"F  c #A2A2A2",
"G  c #A7A3A5",
"H  c #A5A5A5",
"J  c #A8A8A8",
"K  c #ABABAB",
"L  c #ACACAC",
"P  c #ADADAD",
"I  c #AEAEAE",
"U  c #B1B1B1",
"Y  c #B4B4B4",
"T  c #B5B5B5",
"R  c #B6B6B6",
"E  c #B9B9B9",
"W  c #BAB9BA",
"Q  c #BABABA",
"!  c #BBBBBB",
"~  c #BDBDBD",
"^  c #BEBEBE",
"/  c #BFBFBF",
"(  c #DF99B1",
")  c #F4A7C1",
"_  c #F5A7C1",
"`  c #F6A8C2",
"'  c #FEADC8",
"]  c #FFAEC9",
"[  c #FFB6CE",
"{  c #FFBBD2",
"}  c #C2C2C2",
"|  c #C3C3C3",
" . c #C7C7C7",
".. c #CFC2C6",
"X. c #C8C8C8",
"o. c #C9C9C9",
"O. c #CBCBCB",
"+. c #CDCDCD",
"@. c #CECECE",
"#. c #D0D0D0",
"$. c #D1D1D1",
"%. c #D3D3D3",
"&. c #D5D5D5",
"*. c #D7D7D7",
"=. c #D8D8D8",
"-. c #DDDDDD",
";. c #DEDEDE",
":. c #DFDFDF",
">. c #FFC2D6",
",. c #F8CBDA",
"<. c #E0E0E0",
"1. c #E6E6E6",
"2. c #E7E7E7",
"3. c #EEE3E7",
"4. c #E8E8E8",
"5. c #EAEAEA",
"6. c #ECECEC",
"7. c #EDEDED",
"8. c #EEEEEE",
"9. c #EFEFEF",
"0. c #FFECF2",
"q. c #F2F2F2",
"w. c #F3F3F3",
"e. c #F5F5F5",
"r. c #F7F7F7",
"t. c #FFF7FA",
"y. c #F9F9F9",
"u. c #FAFAFA",
"i. c #FBFBFB",
"p. c #FCFCFC",
"a. c #FDFDFD",
"s. c #FFFDFD",
"d. c #FEFEFE",
"f. c #FFFEFE",
"g. c #FFFFFF",
"h. c None",
/* pixels */
"h.h.h.h.h.h.h.h.h.h.h.h.h.h.h.h.h.    $ h.h.h.h.h.h.h.h.h.h.h.h.",
"h.h.h.h.h.h.h.h.h.h.h.h.h.h.= 4 #.| } +.L 9 . h.h.h.h.h.h.h.h.h.",
"h.h.h.h.h.h.h.h.h.h.h.h.X f X.=.g.g.g.w. .o.q h.h.h.h.h.h.h.h.h.",
"h.h.h.h.h.h.h.h.h.h.h.o M  . . .7.g.g.d.o.o.X.& h.h.h.h.h.h.h.h.",
"h.h.h.h.h.h.h.h.h.h.@ -.g.e.E i.g.g.g.q.g ;.g.4.O h.h.h.h.h.h.h.",
"h.h.h.h.h.h.h.h.h.h.:.g.g.0   M g.g.g.B   4 g.g.a h.h.h.h.h.h.h.",
"h.h.h.h.h.h.h.h.d K y.g.g./ + &.g.g.g.6.7 %.g.g.3.n 2 h.h.h.h.h.",
"h.h.h.h.h.h.h.$.r ,.g.g.g.g.g.g.g.g.g.g.g.g.g.t.[ y 4.: h.h.h.h.",
"h.h.h.h.h.h.F Z ) ] 0.g.g.g.g.g.g.g.g.g.g.g.f.>.] ` G S h.h.h.h.",
"h.h.h.h.h.h.O.l ' ] { s.d.g.g.g.g.g.g.g.g.1...( ] _ A U h.h.h.h.",
"h.h.h.h.h.h.K 2.t i u v -.g.g.g.g.g.g.g.g.+.^ W V C r.p h.h.h.h.",
"h.h.h.h.h.h.h.Q p.5.H R g.g.g.g.g.g.g.g.g.g.! D *.@.s h.h.h.h.h.",
"h.h.h.h.h.h.h.h.% P 8.g.g.g.g.g.g.g.g.g.g.g.g.r.O.5 h.h.h.h.h.h.",
"h.h.h.h.h.h.h.h.m g.g.g.g.g.g.g.g.g.g.g.g.g.g.g.g.g h.h.h.h.h.h.",
"h.h.h.h.h.h.h.h.<.g.g.g.g.g.g.g.g.g.g.g.g.g.g.g.g.N h.h.h.h.h.h.",
"h.h.h.h.h.h.h.$ g.g.g.g.g.g.g.g.g.g.g.g.g.g.g.g.g.~ h.h.h.h.h.h.",
"h.h.h.h.h.h.h.8 g.g.g.g.g.g.g.g.g.g.g.g.g.g.g.g.g.~ h.h.h.h.h.h.",
"h.h.h.h.h.h.h.x g.g.g.g.g.g.g.g.g.g.g.g.g.g.g.g.g.J h.h.h.h.h.h.",
"h.h.h.h.h.h.h.m g.g.g.g.g.g.g.g.g.g.g.g.g.g.g.g.g.w h.h.h.h.h.h.",
"h.h.h.h.h.h.h.b g.g.g.g.g.g.g.g.g.g.g.g.g.g.g.g.9.O h.h.h.h.h.h.",
"h.h.h.h.h.h.h.- u.g.g.g.g.g.g.g.g.g.g.g.g.g.g.a.1 h.h.h.h.h.h.h.",
"h.h.h.h.h.h.h.h.3 r.g.g.g.g.g.g.g.g.g.g.g.g.y.6 h.h.h.h.h.h.h.h.",
"h.h.h.h.h.h.h.h.h.- Y d.g.g.g.g.g.g.g.g.w.I , h.h.h.h.h.h.h.h.h.",
"h.h.h.h.h.h.h.h.h.h.h.> z k c h j S F f h.h.h.h.h.h.h.h.h.h.h.h.",
"h.h.h.h.h.h.h.h.h.h.h.h.h.h.h.e < h.h.h.h.h.h.h.h.h.h.h.h.h.h.h.",
"h.h.h.h.h.h.h.h.h.h.h.h.h.h.h.T # h.h.h.h.h.h.h.h.h.h.h.h.h.h.h.",
"h.h.h.h.h.h.h.h.h.h.h.h.h.h.* I h.h.h.h.h.h.h.h.h.h.h.h.h.h.h.h.",
"h.h.h.h.h.h.h.h.h.h.h.h.h.h.; h.h.h.h.h.h.h.h.h.h.h.h.h.h.h.h.h.",
"h.h.h.h.h.h.h.h.h.h.h.h.h.  h.h.h.h.h.h.h.h.h.h.h.h.h.h.h.h.h.h.",
"h.h.h.h.h.h.h.h.h.h.h.h.h.h.h.h.h.h.h.h.h.h.h.h.h.h.h.h.h.h.h.h.",
"h.h.h.h.h.h.h.h.h.h.h.h.h.h.h.h.h.h.h.h.h.h.h.h.h.h.h.h.h.h.h.h.",
"h.h.h.h.h.h.h.h.h.h.h.h.h.h.h.h.h.h.h.h.h.h.h.h.h.h.h.h.h.h.h.h."
};
